<?xml version="1.0" encoding="UTF-8"?>
<svg id="Design_3" data-name="Design 3" xmlns="http://www.w3.org/2000/svg" xmlns:xlink="http://www.w3.org/1999/xlink" viewBox="0 0 1920 635.28">
  <defs>
    <style>
      .cls-1 {
        fill: #fff;
      }

      .cls-2 {
        fill: url(#radial-gradient);
      }

      .cls-3 {
        opacity: .7;
      }
    </style>
    <radialGradient id="radial-gradient" cx="960.17" cy="312.66" fx="960.17" fy="312.66" r="695.04" gradientUnits="userSpaceOnUse">
      <stop offset=".51" stop-color="#000"/>
      <stop offset=".6" stop-color="#020202"/>
      <stop offset=".67" stop-color="#0c0c0c"/>
      <stop offset=".72" stop-color="#1b1b1b"/>
      <stop offset=".78" stop-color="#313131"/>
      <stop offset=".83" stop-color="#4e4e4e"/>
      <stop offset=".87" stop-color="#717171"/>
      <stop offset=".92" stop-color="#9b9b9b"/>
      <stop offset=".96" stop-color="#cacaca"/>
      <stop offset="1" stop-color="#fff"/>
    </radialGradient>
  </defs>
  <g class="cls-3">
    <rect class="cls-1" x="24.02" y="17.15" width="1871.96" height="591.36"/>
    <path class="cls-2" d="M1896.09,608.62l-467.53.72-468.04.4-468.3-.22-468.18-.5h-.51v-.51l-.03-295.68-.29-295.68v-.82s.82,0,.82,0l935.98-.75,467.99.06,467.99.36h1.15s0,1.15,0,1.15l-1.05,591.46ZM1895.87,608.4l-1.05-591.25,1.15,1.15-467.99.36-467.99.06-935.98-.75.82-.82-.29,295.68-.03,295.68-.51-.51,467.8-.5,467.68-.22,467.94.4,468.44.72Z"/>
  </g>
</svg>